<svg width="20" height="20" viewBox="0 0 20 20" fill="none" xmlns="http://www.w3.org/2000/svg">
<path d="M14.8127 8.0625H13.0627H12.4377V7.4375V5.5V4.875H13.0627H14.3752C14.719 4.875 15.0002 4.625 15.0002 4.25V0.9375C15.0002 0.59375 14.7502 0.3125 14.3752 0.3125H12.094C9.62524 0.3125 7.90649 2.0625 7.90649 4.65625V7.375V8H7.28149H5.15649C4.71899 8 4.31274 8.34375 4.31274 8.84375V11.0938C4.31274 11.5312 4.65649 11.9375 5.15649 11.9375H7.21899H7.84399V12.5625V18.8438C7.84399 19.2812 8.18774 19.6875 8.68774 19.6875H11.6252C11.8127 19.6875 11.969 19.5938 12.094 19.4688C12.219 19.3438 12.3127 19.125 12.3127 18.9375V12.5938V11.9688H12.969H14.3752C14.7815 11.9688 15.094 11.7188 15.1565 11.3438V11.3125V11.2812L15.594 9.125C15.6252 8.90625 15.594 8.65625 15.4065 8.40625C15.344 8.25 15.0627 8.09375 14.8127 8.0625Z" fill="#8899A8"/>
</svg>
