<svg width="20" height="20" viewBox="0 0 20 20" fill="none" xmlns="http://www.w3.org/2000/svg">
<path d="M5.78329 4.16665C5.78306 4.60867 5.60726 5.03251 5.29454 5.34491C4.98182 5.65732 4.55781 5.8327 4.11578 5.83248C3.67376 5.83226 3.24992 5.65645 2.93752 5.34373C2.62511 5.03102 2.44973 4.60701 2.44995 4.16498C2.45017 3.72295 2.62598 3.29912 2.9387 2.98671C3.25141 2.67431 3.67542 2.49892 4.11745 2.49915C4.55948 2.49937 4.98331 2.67517 5.29572 2.98789C5.60812 3.30061 5.78351 3.72462 5.78329 4.16665ZM5.83329 7.06664H2.49995V17.5H5.83329V7.06664ZM11.1 7.06664H7.78329V17.5H11.0666V12.025C11.0666 8.97498 15.0416 8.69165 15.0416 12.025V17.5H18.3333V10.8916C18.3333 5.74998 12.45 5.94165 11.0666 8.46664L11.1 7.06664Z" fill="#8899A8"/>
</svg>
