<svg width="30" height="30" viewBox="0 0 30 30" fill="none" xmlns="http://www.w3.org/2000/svg">
<path d="M26.2969 5.20312H3.70313C2.10938 5.20312 0.84375 6.46875 0.84375 8.0625V21.9375C0.84375 23.5312 2.10938 24.7969 3.70313 24.7969H26.3438C27.9375 24.7969 29.2031 23.5312 29.2031 21.9375V8.0625C29.2031 6.46875 27.8906 5.20312 26.2969 5.20312ZM2.95312 8.625L11.4844 13.8281L2.95312 21.7969V8.625ZM15.375 13.2656C15.1406 13.4062 14.8125 13.4062 14.5781 13.2656L4.82812 7.3125H24.9844L15.375 13.2656ZM13.3125 14.9531L13.5 15.0938C13.9688 15.375 14.4844 15.5156 15 15.5156C15.5156 15.5156 16.0313 15.375 16.5 15.0938L16.6875 15L24.7969 22.7344H5.01562L13.3125 14.9531ZM27.0938 21.9375C27.0469 21.9375 27.0938 21.9375 27.0938 21.9375L18.5156 13.8281L27.0469 8.48438V21.9375H27.0938Z" fill="#8899A8"/>
</svg>
