<svg width="30" height="30" viewBox="0 0 30 30" fill="none" xmlns="http://www.w3.org/2000/svg">
<path fill-rule="evenodd" clip-rule="evenodd" d="M22.7811 29.2032C21.5155 29.2032 20.0624 28.875 18.4686 28.2657C15.2811 27 11.7655 24.5625 8.62488 21.4219C5.48425 18.2813 3.04675 14.7657 1.78113 11.5313C0.374876 8.06254 0.515501 5.20316 2.15613 3.60941C2.17956 3.58597 2.21472 3.56254 2.24988 3.5391C2.28503 3.51566 2.32019 3.49222 2.34363 3.46879L6.28113 1.12504C7.2655 0.562537 8.53113 0.843787 9.18738 1.78129L11.953 5.90629C12.6093 6.89066 12.328 8.20316 11.3905 8.85941L9.703 10.0313C10.9218 12 14.3905 16.8282 19.9218 20.2969L20.953 18.7969C21.7499 17.6719 23.0155 17.3438 24.0467 18.0469L28.1717 20.8125C29.1092 21.4688 29.3905 22.7344 28.828 23.7188L26.4843 27.6563C26.4374 27.75 26.3905 27.7969 26.3436 27.8438C25.4999 28.7344 24.2811 29.2032 22.7811 29.2032ZM3.56238 5.20316C2.67175 6.18754 2.71863 8.20316 3.74988 10.7813C4.92175 13.7344 7.17175 16.9688 10.1249 19.9219C13.0311 22.8282 16.3124 25.0782 19.2186 26.25C21.7499 27.2813 23.7655 27.3282 24.7968 26.4375L27.0468 22.5938V22.5L22.9218 19.7344C22.9218 19.7344 22.828 19.7813 22.7343 19.9219L21.703 21.4219C21.0468 22.3594 19.7811 22.6407 18.8436 22.0313C12.9374 18.375 9.28113 13.2657 7.96863 11.2032C7.35925 10.2188 7.59363 8.95316 8.53113 8.29691L10.2186 7.12504V7.07816L7.453 2.95316C7.453 2.90629 7.40613 2.90629 7.35925 2.95316L3.56238 5.20316Z" fill="#8899A8"/>
<path d="M27.4689 13.3594C26.9064 13.3594 26.4846 12.9375 26.4377 12.375C26.0627 7.64067 22.1721 3.8438 17.3908 3.51567C16.8283 3.4688 16.3596 3.00005 16.4064 2.39067C16.4533 1.82817 16.9221 1.35942 17.5314 1.4063C23.3439 1.7813 28.0783 6.37505 28.5471 12.1875C28.5939 12.75 28.1721 13.2657 27.5627 13.3125C27.5627 13.3594 27.5158 13.3594 27.4689 13.3594Z" fill="#8899A8"/>
<path d="M21.7971 12.8438C21.844 13.4063 22.3128 13.7813 22.8284 13.7813C22.8284 13.7813 22.8753 13.7813 22.969 13.7344C23.5784 13.6407 23.9534 13.125 23.9065 12.5625C23.4846 9.04691 20.7659 6.32816 17.2503 5.90628C16.6878 5.85941 16.1253 6.28128 16.0784 6.84378C16.0315 7.40628 16.4534 7.96878 17.0159 8.01566C19.5471 8.34378 21.5159 10.3125 21.7971 12.8438Z" fill="#8899A8"/>
</svg>
