<svg width="20" height="20" viewBox="0 0 20 20" fill="none" xmlns="http://www.w3.org/2000/svg">
<path d="M19.2812 5.34363C19.0625 4.49988 18.4062 3.84363 17.5625 3.62488C16.0625 3.21863 10 3.21863 10 3.21863C10 3.21863 3.9375 3.21863 2.4375 3.62488C1.59375 3.84363 0.9375 4.49988 0.71875 5.34363C0.3125 6.87488 0.3125 9.99988 0.3125 9.99988C0.3125 9.99988 0.3125 13.1561 0.71875 14.6561C0.9375 15.4999 1.59375 16.1561 2.4375 16.3749C3.9375 16.7811 10 16.7811 10 16.7811C10 16.7811 16.0625 16.7811 17.5625 16.3749C18.4062 16.1561 19.0625 15.4999 19.2812 14.6561C19.6875 13.1561 19.6875 9.99988 19.6875 9.99988C19.6875 9.99988 19.6875 6.87488 19.2812 5.34363ZM8.0625 12.9061V7.09363L13.0938 9.99988L8.0625 12.9061Z" fill="#8899A8"/>
</svg>
